<?xml version="1.0" encoding="UTF-8"?>
<svg viewBox="0 0 272.14 236.03" xmlns="http://www.w3.org/2000/svg">
 <path d="m264.02 18.327c-16.047-11.568-41.9-13.155-54.826 3.716-12.907 16.849-5.959 38.873-0.267 57.205 4.275 13.771-0.098007 28.556-11.982 37.374-7.806 5.792-26.435 12.076-33.657 1.725 12.419-7.086 29.15-12.417 33.24-28.543 2.341-9.231-11.928-34.896-19.089-21.051 20.227-6.806 17.748 22.438 10.2 31.754-8.853 10.921-23.84 16.03-36.096 17.215-5.07 0.491-16.534-1.684-13.231-8.355 9.901 18.665 41.208-3.021 47.87-13.557 10.755-17.011-11.344-29.709-13.321-16.115 4.182-4.982 9.746-5.688 13.559 0.059998 5.668 8.546-4.259 18.814-10.05 23.905-6.078 5.342-14.476 10.037-22.895 8.92 0.22-7.524 1.989-16.687 5.413-24.5 4.376-9.99 16.131-13.423 19.502-21.704-18.282 6.555-22.05 22.654-27.411 39.366-0.323 1.003 0.731 6.028-0.12001 6.6-3.485 2.342-10.189-2.2-11.715-5.113-1.262-2.412-0.621-12.893-1.664-17.066-1.697-6.786-2.463-14.501-7.284-19.89-7.245-8.096-5.098-6.753 1.159-15.372 2.878-3.967 4.639-8.586 7.432-12.546 0.75301-1.067 2.024-5.25 2.914-5.769 2.836-1.656 4.648 1.725 6.66 0.833 24.064-10.671-9.039-35.101-14.985-18.732-2.063 5.679 2.848 6.989 2.082 11.18-0.871 4.76-8.52 10.494-11.566 14.034-4.594 5.335-11.276 20.31-18.939 8.623-3.029-4.619 1.863-12.984 3.508-19.564 0.766-3.067 1.081-9.518 3.033-12.011 1.949-2.491 5.076-0.777 7.016-3.45 11.45-15.771-25.632-27.573-19.861-4.816 0.408 1.61 3.693 2.532 4.281 4.46 0.569 1.871-1.114 7.609-1.605 9.99-0.713 3.449-2.36 13.028-4.698 15.818-2.546 3.039 0.758 4.887-4.785 1.695-4.224-2.431-10.254-1.855-14.898-1.1-8.457 1.375-19.078 2.983-26.758 7.611-18.192 10.956-31.746 32.333-25.956 54.672 2.016 7.785 5.952 14.802 10.733 21.14 2.739 3.632 12.309 7.669 13.677 9.93 0.692 0.237 1.346 0.556 1.961 0.952-15.663 22.491-40.791 41.186-50.603 66.897 13.454-4.848 58.416-71.549 71.12-58.573 4.907 5.012-2.486 35.448-3.025 39.317-2.236 16.079-7.54 34.693-6.834 50.475 0.042999 0.996 3.981-10.447 3.794-9.336 1.884-11.159 5.536-22.225 7.702-33.449 1.307-6.771 2.855-13.307 4.666-20.247 1.34-5.126 1.72-18.673 5.353-22.597 2.383-2.571 15.483-4.792 20.038-6.064 12.374-3.459 17.919-9.207 27.028-19.356 8.262-9.207 3.612-8.769 14.777-5.679 7.568 2.095 7.058 2.938 13.26 6.185 12.89 6.742 29.238 8.124 42.221 0.772 22.835-12.932 21.225-45.787 14.183-66.926-5.413-16.245-4.89-41.479 18.314-42.339 6.051-0.225 11.66 0.202 17.273 2.765 4.993 2.278 17.836 20.216 21.943 12.606 1.913-3.547-5.052-12.332-7.791-13.975"/>
 <path d="m162.87 89.089c-1.325 2.101-11.144 23.626-4.639 23.489 1.318-0.028 1.841-12.457 3.152-15.491 3.439-7.958 11.052-14.32 13.556-22.388-5.299 3.569-8.622 9.379-12.069 14.39"/>
 <g fill="#fff">
  <path d="m180.95 72.795c16.755 4.573 6.919 22.532-0.65401 30.328-7.623 7.846-34.062 21.174-41.982 6.243-3.303 6.671 8.161 8.846 13.231 8.355 13.026-1.26 28.633-6.947 37.492-18.939 4.958-6.711 7.481-15.569 3.33-23.25-3.789-7.014-15.858-12.29-17.425-0.833 1.959-1.158 4.13-1.094 6.008-1.904"/>
  <path d="m176.96 69.228c-16.692 7.235-23.024 27.466-23.488 43.35 1.104 0.334 3.451 0.28 4.58 0.058998-12.64-11.939 20.129-35.654 18.908-43.409"/>
  <path d="m106.2 2.034c7.641-0.294 20.196 11.83 6.66 9.573-7.257-1.209-18.237-12.246-6.66-9.573"/>
  <path d="m107.99 12.856c3.484 1.308 7.206 1.623 10.525 1.13-4.614 8.5-17.165-0.479-19.92-5.769 2.676 2.329 5.901 3.918 9.395 4.639"/>
  <path d="m242.02 12.5c7.19 0.162 17.087 3.377 22.181 8.622 2.802 2.886 8.073 13.671-0.17899 10.228-2.409-1.004-7.086-9.786-10.822-12.011-4.034-2.404-8.098-3.567-12.547-4.223-9.43-1.389-17.109 1.062-24.023 7.731-17.985 17.344 1.026 50.667-0.416 72.546-1.061 16.067-13.586 34.375-31.754 33.805-9.011-0.28-23.675-0.521-29.138-9.009 5.496-2.424 15.038 5.354 22.002 5.056 17.687-0.758 33.51-14.28 35.796-32.171 2.659-20.784-16.012-40.899-6.48-62.497 6.152-13.944 20.716-21.344 35.38-18.077"/>
  <path d="m152.76 22.608c8.999 10.574-5.559 7.549-10.942 1.963-11.502-11.938 3.626-12.26 10.942-1.963"/>
  <path d="m109.41 19.338c-1.375 10.733-5.152 21.01-8.622 31.1-6.878-2.534 3.967-25.961 4.281-32.527 1.307 0.49 3.248 0.844 4.341 1.427"/>
  <path d="m135.04 21.181c4.933 5.032 9.991 10.983 17.364 11.952-6.695 6.64-20.869-10.658-17.364-11.952"/>
  <path d="m140.51 33.788c-2.695 6.677-22.605 41.336-28.899 37.105-6.667-4.48 22.337-41.113 28.899-37.105"/>
  <path d="m91.338 47.523c-8.854-2.556-19.365 1.06-27.533 2.914-13.362 3.034-23.995 12.235-29.672 24.439-8.151 17.516-4.219 37.014 5.589 53.994-13.778-16.312-19.95-42.681-6.244-61.485 9.64-13.223 42.48-29.465 57.86-19.862"/>
  <path d="m94.25 50.438c-6.754 4.642-22.59 3.948-31.843 6.304-10.597 2.696-18.816 14.198-22.745 24.023-7.421 18.56-0.224 36.152 8.029 53.163-14.864-3.479-17.255-43.951-12.666-56.018 5.925-15.581 17.641-21.244 31.754-24.201 9.424-1.976 16.762-6.376 27.471-3.271"/>
  <path d="m97.879 54.065c5.267-0.324 10.959 1.215 14.093 5.768-37.272-8.666-74.623 15.093-69.752 56.015-5.889-16.644-3.132-36.164 9.336-49.415 9.543-10.14 33.59-13.643 46.323-12.368"/>
  <path d="m97.522 60.547c4.205-0.782 8.467-0.011002 12.309 1.843-23.475-4.072-45.008 7.975-56.461 27.83-7.329 12.701-3.537 26.416-1.753 39.722-7.604-7.095-9.261-25.363-6.423-35.382 6.674-23.571 29.374-34.462 52.328-34.013"/>
  <path d="m98.592 64.531c0.10899 2.465-0.72501 5.159-1.07 7.612-2.085-2.095-3.259-4.761-3.983-7.612 1.853-0.787 3.36-0.526 5.053 0"/>
  <path d="m102.58 63.817c1.187 10.173-0.76 21.668-1.843 32.229-0.821 8.009-1.911 16.284-4.756 23.904-1.958 5.242-10.957 25.225-17.425 26.045-6.823 0.866 0.83-8.47 2.202-10.524 4.307-6.454 8.25-11.772 11-18.613 5.763-14.329 4.626-32.288 8.801-47.75 0.641-2.376 1.049-4.117 2.021-5.291"/>
  <path d="m107.99 64.888c-2.363 17.723-1.029 33.44-5.352 51.853-2.205 9.39-9.601 16.562-12.071 24.797-3.043 10.145 6.046-4.39 8.443-7.255-2.951 9.948-6.5 13.746-16.293 11.536 18.355-24.622 22.776-51.27 22.776-81.645 0.841 0.13199 1.692 0.59799 2.497 0.71399"/>
  <path d="m91.041 65.245c1.556 5.55 7.358 9.443 5.054 15.223-3.723-2.449-11.754-13.036-5.054-15.223"/>
  <path d="m85.926 66.67c-0.944 7.857 14.134 17.301 9.098 23.964-4.909 6.498-23.316-23.488-9.098-23.964"/>
  <path d="m115.18 99.912c-1.999 9.377-5.502 18.375-7.195 27.83 2.672-17.132 1.623-47.021 13.736-59.94-1.821 10.719-3.642 21.832-6.541 32.11"/>
  <path d="m127.85 72.499c-5.913 22.389-6.452 51.302-22.002 69.693 2.251-14.315 9.221-29.848 12.666-44.421 1.689-7.144 1.408-18.894 4.638-24.976 1.997-3.759 2.487-6.303 4.698-0.296"/>
  <path d="m78.314 69.584c-1.612 8.02 4.586 18.965 11.12 23.489 5.124 3.548 6.546 7.809-1.129 4.223-5.856-2.736-22.1-25.083-9.991-27.712"/>
  <path d="m71.12 73.213c1.384 6.981 3.439 14.262 8.207 19.742 4.011 4.613 14.192 7.545 12.785 13.855-6.553-2.518-37.62-28.634-20.992-33.597"/>
  <path d="m114.82 74.283c-0.621 6.336-2.527 12.537-4.281 18.434-0.386-5.162-0.195-16.975 4.281-18.434"/>
  <path d="m133.26 83.321c-8.647 16.376-5.67 36.164-19.505 50.962 5.021-20.318 11.895-39.353 15.937-60 1.817 2.633 3.041 5.777 3.568 9.038"/>
  <path d="m64.994 80.051c0.19099 13.52 29.613 27.522 24.619 35.44-11.165-1.213-27.94-16.263-29.317-28.186-0.478-4.142 1.077-10.808 4.698-7.254"/>
  <path d="m71.833 108.95c5.18 4.095 9.875 8.178 16.65 8.742-4.221 9.579-42.351-16.727-31.04-31.101 3.566 8.082 9.025 15.735 14.39 22.359"/>
  <path d="m134.69 96.642c-4.25 16.625-7.633 28.187-19.802 40.494 11.785-13.11 18.104-32.722 19.088-50.187 1.833 3.149 2.123 6.69 0.71399 9.693"/>
 </g>
 <path d="m110.54 94.5c-0.645 2.075-0.517 1.657 0 0" fill="#0c0"/>
 <g fill="#fff">
  <path d="m59.227 106.45c7.44 7.553 15.422 14.928 26.045 17.363-3.779 7.774-40.553-12.822-31.813-26.045 1.739 3.012 3.667 5.913 5.768 8.682"/>
  <path d="m136.11 107.88c-1.237 3.665-2.368 8.216-4.638 10.466 2.922-6.495 4.954-13.415 5.055-20.575 1.221 3.357 1.089 6.985-0.41701 10.109"/>
  <path d="m108.34 105.74c-1.648 11.717-0.693 28.826-9.751 37.581 4.567-12.274 5.933-25.587 9.751-37.581"/>
  <path d="m62.438 118.35c5.244 4.853 12.384 8.712 19.207 11.238-5.262 7.832-32.699-10.208-30.028-20.218 3.055 3.592 6.709 7.015 10.821 8.98"/>
  <path d="m57.8 123.4c5.885 4.06 13.455 9.917 20.217 10.88-5.587 3.547-25.161-6.006-24.915-14.449 1.312 1.75 3.352 2.395 4.698 3.569"/>
  <path d="m68.979 136.42c2.174 0.623 4.482 1.331 6.481 2.141-6.17-0.701-21.063-2.93-20.933-10.405 4.244 3.642 9.196 6.369 14.452 8.264"/>
 </g>
 <path d="m52.329 133.15c0.545 0.014999-1.319-0.045013 0 0" fill="#0c0"/>
 <path d="m73.676 141.12c-3.535 5.903-19.634 1.01-18.016-6.124 5.446 3.657 11.965 3.987 18.016 6.124" fill="#fff"/>
 <path d="m114.11 138.21c-1.391 1.429-1.68 2.592-3.568 3.269 1.157-1.067 2.583-2.231 3.568-3.269" fill="#0c0"/>
 <g fill="#fff">
  <path d="m57.74 144.33c-16.316 18.75-33.803 39.705-53.4 54.945 2.992-7.216 10.306-14.838 15.58-21.229 6.151-7.457 29.862-45.305 37.82-33.716"/>
  <path d="m81.229 148.67c-4.938 19.726-11.029 39.456-13.677 59.645 1.281-19.813 7.756-41.315 6.124-61.071 2.397 0.446 5.392 0.573 7.553 1.426"/>
 </g>
</svg>
